<svg width="60" height="60" viewBox="0 0 60 60" fill="none" xmlns="http://www.w3.org/2000/svg">
<path d="M30.8077 55.2692V56.9124L32.4441 56.763C39.3339 56.1341 45.716 52.8732 50.2629 47.6588C54.8099 42.4444 57.1716 35.6777 56.8568 28.7664C56.542 21.8552 53.5749 15.3312 48.5728 10.5518C43.5706 5.77226 36.9185 3.10512 30 3.10512C23.0815 3.10512 16.4294 5.77226 11.4273 10.5518C6.4251 15.3312 3.45804 21.8552 3.14324 28.7664C2.82844 35.6777 5.19013 42.4444 9.73707 47.6588C14.284 52.8732 20.6661 56.1341 27.556 56.763L29.1923 56.9124V55.2692V36.9231V35.4231H27.6923H20.7692C20.555 35.4231 20.3496 35.338 20.1981 35.1865C20.0466 35.035 19.9615 34.8296 19.9615 34.6154C19.9615 34.4012 20.0466 34.1957 20.1981 34.0443C20.3496 33.8928 20.555 33.8077 20.7692 33.8077H27.6923H29.1923V32.3077V25.3869C29.1993 23.3382 30.0163 21.3753 31.465 19.9265C32.9138 18.4778 34.8767 17.6608 36.9254 17.6539H41.5385C41.7527 17.6539 41.9581 17.739 42.1096 17.8904C42.2611 18.0419 42.3462 18.2473 42.3462 18.4615C42.3462 18.6758 42.2611 18.8812 42.1096 19.0327C41.9581 19.1841 41.7527 19.2692 41.5385 19.2692H36.9231C35.3012 19.2692 33.7457 19.9135 32.5989 21.0604C31.452 22.2073 30.8077 23.7627 30.8077 25.3846V32.3077V33.8077H32.3077H39.2308C39.445 33.8077 39.6504 33.8928 39.8019 34.0443C39.9534 34.1957 40.0385 34.4012 40.0385 34.6154C40.0385 34.8296 39.9534 35.035 39.8019 35.1865C39.6504 35.338 39.445 35.4231 39.2308 35.4231H32.3077H30.8077V36.9231V55.2692ZM53.6969 14.1663C56.8282 18.8527 58.4997 24.3623 58.5 29.9986C58.4927 37.5554 55.4876 44.8006 50.1441 50.1441C44.8006 55.4876 37.5554 58.4927 29.9986 58.5C24.3623 58.4997 18.8527 56.8282 14.1663 53.6969C9.47946 50.5653 5.82654 46.1142 3.66945 40.9065C1.51235 35.6988 0.947954 29.9684 2.04763 24.4399C3.14731 18.9115 5.86167 13.8333 9.84747 9.84747C13.8333 5.86167 18.9115 3.14731 24.4399 2.04763C29.9684 0.947954 35.6988 1.51235 40.9065 3.66945C46.1142 5.82654 50.5653 9.47946 53.6969 14.1663Z" fill="#841030" stroke="#841030" stroke-width="3"/>
</svg>
