<svg width="30" height="30" viewBox="0 0 30 30" fill="none" xmlns="http://www.w3.org/2000/svg">
<path d="M15 20.3L15.0016 20.3C16.4054 20.2956 17.7506 19.736 18.7433 18.7433C19.736 17.7506 20.2956 16.4054 20.3 15.0016V15C20.3 13.9518 19.9892 12.9271 19.4068 12.0555C18.8244 11.1839 17.9967 10.5046 17.0282 10.1034C16.0598 9.70229 14.9941 9.59734 13.966 9.80184C12.9379 10.0063 11.9936 10.5111 11.2523 11.2523C10.5111 11.9936 10.0063 12.9379 9.80184 13.966C9.59734 14.9941 9.70229 16.0598 10.1034 17.0282C10.5046 17.9967 11.1839 18.8244 12.0555 19.4068C12.9271 19.9892 13.9518 20.3 15 20.3ZM11.2777 9.42915C12.3795 8.69295 13.6749 8.3 15 8.3C16.777 8.3 18.4811 9.00589 19.7376 10.2624C20.9941 11.5189 21.7 13.2231 21.7 15C21.7 16.3251 21.3071 17.6205 20.5708 18.7223C19.8346 19.8241 18.7882 20.6829 17.564 21.19C16.3397 21.6971 14.9926 21.8298 13.6929 21.5713C12.3932 21.3127 11.1994 20.6746 10.2624 19.7376C9.32537 18.8006 8.68726 17.6068 8.42874 16.3071C8.17022 15.0074 8.3029 13.6603 8.81001 12.436C9.31711 11.2118 10.1759 10.1654 11.2777 9.42915ZM8.4 0.5H21.6C23.6952 0.5 25.7046 1.33232 27.1861 2.81386C28.6677 4.29539 29.5 6.30479 29.5 8.4V21.6C29.5 23.6952 28.6677 25.7046 27.1861 27.1861C25.7046 28.6677 23.6952 29.5 21.6 29.5H8.4C6.30479 29.5 4.29539 28.6677 2.81386 27.1861C1.33232 25.7046 0.5 23.6952 0.5 21.6V8.4C0.5 6.30479 1.33232 4.29539 2.81386 2.81386C4.29539 1.33232 6.30479 0.5 8.4 0.5ZM27.6052 24.0874C27.9319 23.2988 28.1 22.4536 28.1 21.6V8.4C28.1 7.54641 27.9319 6.70117 27.6052 5.91256C27.2786 5.12394 26.7998 4.40739 26.1962 3.80381C25.5926 3.20023 24.8761 2.72144 24.0874 2.39478C23.2988 2.06813 22.4536 1.9 21.6 1.9H8.4C6.67609 1.9 5.02279 2.58482 3.80381 3.80381C2.58482 5.02279 1.9 6.67609 1.9 8.4V21.6C1.9 22.4536 2.06813 23.2988 2.39478 24.0874C2.72144 24.8761 3.20023 25.5926 3.80381 26.1962C4.40739 26.7998 5.12394 27.2786 5.91256 27.6052C6.70117 27.9319 7.54641 28.1 8.4 28.1H21.6C22.4536 28.1 23.2988 27.9319 24.0874 27.6052C24.8761 27.2786 25.5926 26.7998 26.1962 26.1962C26.7998 25.5926 27.2786 24.8761 27.6052 24.0874ZM24.1 7.2C24.1 7.45711 24.0238 7.70846 23.8809 7.92224C23.7381 8.13602 23.535 8.30265 23.2975 8.40104C23.0599 8.49944 22.7986 8.52518 22.5464 8.47502C22.2942 8.42486 22.0626 8.30105 21.8808 8.11924C21.699 7.93743 21.5751 7.70579 21.525 7.45362C21.4748 7.20144 21.5006 6.94006 21.599 6.70251C21.6974 6.46497 21.864 6.26193 22.0778 6.11909C22.2915 5.97624 22.5429 5.9 22.8 5.9C23.1448 5.9 23.4754 6.03696 23.7192 6.28076C23.963 6.52456 24.1 6.85522 24.1 7.2Z" fill="#841030" stroke="#841030"/>
</svg>
